<svg width="48" height="48" viewBox="0 0 48 48" fill="none" xmlns="http://www.w3.org/2000/svg">
<rect width="48" height="48" rx="8" fill="#E8F5E9"/>
<g clip-path="url(#clip0_22_772)">
<path fill-rule="evenodd" clip-rule="evenodd" d="M10.3533 0.194519C15.8761 0.194519 20.3533 4.67167 20.3533 10.1945V0.194519H30.3533C35.8761 0.194519 40.3533 4.67167 40.3533 10.1945C40.3533 15.7173 35.8761 20.1945 30.3533 20.1945C35.8761 20.1945 40.3533 24.6717 40.3533 30.1945C40.3533 32.9368 39.2494 35.4213 37.4618 37.2279L37.4244 37.2656L37.3912 37.2986C35.5842 39.0888 33.0979 40.1945 30.3533 40.1945C27.6274 40.1945 25.1562 39.1038 23.3523 37.335C23.3289 37.312 23.3055 37.2888 23.2822 37.2656C23.2603 37.2437 23.2385 37.2217 23.2168 37.1996C21.4457 35.3954 20.3533 32.9225 20.3533 30.1945C20.3533 35.7173 15.8761 40.1945 10.3533 40.1945C4.83048 40.1945 0.353333 35.7173 0.353333 30.1945V20.1945H10.3533C4.83048 20.1945 0.353333 15.7173 0.353333 10.1945C0.353333 4.67167 4.83048 0.194519 10.3533 0.194519ZM18.3533 10.1945C18.3533 14.6128 14.7716 18.1945 10.3533 18.1945V2.19452C14.7716 2.19452 18.3533 5.77624 18.3533 10.1945ZM38.3533 30.1945C38.3533 25.7762 34.7716 22.1945 30.3533 22.1945C25.935 22.1945 22.3533 25.7762 22.3533 30.1945H38.3533ZM2.35333 22.1945V30.1945C2.35333 34.6128 5.93505 38.1945 10.3533 38.1945C14.7716 38.1945 18.3533 34.6128 18.3533 30.1945V22.1945H2.35333ZM22.3533 18.1945V2.19452H30.3533C34.7716 2.19452 38.3533 5.77624 38.3533 10.1945C38.3533 14.6128 34.7716 18.1945 30.3533 18.1945H22.3533Z" fill="#5417D7"/>
</g>
<defs>
<clipPath id="clip0_22_772">
<rect width="40" height="40" fill="white" transform="translate(0.353333 0.194519)"/>
</clipPath>
</defs>
</svg>
