<svg width="48" height="48" viewBox="0 0 48 48" fill="none" xmlns="http://www.w3.org/2000/svg">
<rect width="48" height="48" rx="8" fill="#F5F7FA"/>
<g clip-path="url(#clip0_22_767)">
<path fill-rule="evenodd" clip-rule="evenodd" d="M10.0981 13.9614L0.112305 23.8468C2.10964 25.8241 4.39129 27.4905 6.87894 28.7942C7.56655 30.5998 8.64433 32.2931 10.1123 33.7463C15.6352 39.2136 24.5895 39.2136 30.1123 33.7463C31.5803 32.2931 32.6581 30.5998 33.3457 28.7941C35.8333 27.4905 38.115 25.8241 40.1123 23.8468L30.1346 13.9695C30.1272 13.9621 30.1198 13.9547 30.1123 13.9473C24.5895 8.47997 15.6352 8.47997 10.1123 13.9473C10.1076 13.952 10.1028 13.9567 10.0981 13.9614ZM29.1568 30.5777C26.2468 31.5499 23.192 32.0478 20.1123 32.0478C17.0326 32.0478 13.9779 31.5499 11.0679 30.5777C11.3832 30.9918 11.7313 31.3892 12.1123 31.7664C16.5306 36.1403 23.694 36.1403 28.1123 31.7664C28.4933 31.3892 28.8415 30.9918 29.1568 30.5777ZM12.3174 15.7292C13.0677 16.2199 13.8655 16.6398 14.7003 16.9822C16.4161 17.6857 18.2551 18.0478 20.1123 18.0478C21.9695 18.0478 23.8085 17.6857 25.5243 16.9822C26.3591 16.6398 27.1569 16.2199 27.9073 15.7292C23.5441 11.6193 16.6805 11.6193 12.3174 15.7292Z" fill="#3B4158"/>
</g>
<defs>
<clipPath id="clip0_22_767">
<rect width="40" height="28" fill="white" transform="translate(0.112305 9.8468)"/>
</clipPath>
</defs>
</svg>
