<svg width="55" height="48" viewBox="0 0 55 48" fill="none" xmlns="http://www.w3.org/2000/svg">
<rect width="48" height="48" rx="8" fill="#F5F7FA"/>
<g clip-path="url(#clip0_22_768)">
<path d="M54.9957 19.5165C55.0015 19.4748 55.0015 19.4326 54.9957 19.3909C55.0011 19.3569 55.0011 19.3223 54.9957 19.2882L54.5883 16.3556C54.5295 16.0047 54.3723 15.6768 54.1344 15.4085L54.0645 15.3286L53.9365 15.2031L46.8829 9.24648L47.0808 9.44048C46.9189 9.2506 46.7157 9.09872 46.4861 8.99602C46.2565 8.89333 46.0062 8.84244 45.7539 8.8471H43.6122C43.2639 8.84034 42.9236 8.94889 42.6461 9.1552C42.3547 8.95013 42.0038 8.84213 41.6451 8.8471H39.5034C39.2225 8.84263 38.9454 8.91098 38.7001 9.04523C38.4549 9.17948 38.2501 9.37488 38.1067 9.61164C37.8855 9.94979 37.8023 10.3572 37.8738 10.7527L38.1416 12.6013C37.9642 12.5028 37.7635 12.4516 37.5596 12.453H27.1887C26.8166 12.4553 26.4531 12.5622 26.1411 12.7611C25.8395 12.9462 25.5973 13.2113 25.4428 13.5256L24.6396 12.8524C24.3235 12.5656 23.9063 12.4102 23.4757 12.4188H7.20353C6.83012 12.4254 6.46501 12.5277 6.14436 12.7155C5.70569 12.9672 5.38421 13.3764 5.24809 13.8566L0.0801167 30.802C-0.0164452 31.0812 -0.0259442 31.3824 0.0528362 31.6669C0.131617 31.9514 0.295109 32.2065 0.522426 32.3996C0.581658 32.4488 0.643851 32.4945 0.708664 32.5365C0.708664 32.5365 0.603891 32.468 0.545692 32.411L7.59931 38.379C7.89769 38.6483 8.28781 38.7988 8.69336 38.8011H25.0936C25.4681 38.7916 25.8335 38.6853 26.1528 38.493C26.3334 38.3963 26.495 38.2688 26.63 38.1165L26.6882 38.0366L26.7813 37.9225L26.8512 37.797L27.6194 38.4474C27.9135 38.706 28.2951 38.8483 28.6902 38.8468H45.1253C45.4994 38.8346 45.8641 38.7285 46.1845 38.5387C46.361 38.436 46.5217 38.3092 46.6618 38.1621L46.7199 38.0823L46.813 37.9682C46.8625 37.896 46.9055 37.8196 46.941 37.7399C46.9791 37.6707 47.0103 37.5981 47.0342 37.5231L51.7482 22.0497V21.9128C51.754 21.8597 51.754 21.8061 51.7482 21.753V21.6504C51.7539 21.6163 51.7539 21.5817 51.7482 21.5476C51.7535 21.4755 51.7535 21.403 51.7482 21.3308H53.2614C53.393 21.3426 53.5255 21.3426 53.6571 21.3308H53.7619C53.8471 21.3059 53.9291 21.2714 54.0063 21.2281H54.1227L54.3322 21.0684L54.4253 20.9999L54.5883 20.7945V20.7261L54.7047 20.532C54.6982 20.4943 54.6982 20.4557 54.7047 20.418C54.6985 20.3994 54.6985 20.3794 54.7047 20.3609C54.7294 20.294 54.7489 20.2253 54.7629 20.1555C54.7575 20.133 54.7575 20.1095 54.7629 20.087C54.7572 20.053 54.7572 20.0183 54.7629 19.9843C54.7629 19.9843 54.9957 19.5393 54.9957 19.5165Z" fill="black"/>
<path d="M23.9529 13.7196C24.0147 13.7744 24.0579 13.8465 24.0766 13.926C24.0954 14.0056 24.0887 14.0889 24.0577 14.1647L18.9014 31.0987C18.8365 31.2836 18.7036 31.4382 18.5289 31.5324C18.3868 31.6256 18.2222 31.6806 18.0517 31.6921H1.66316C1.5232 31.6855 1.39061 31.6287 1.29069 31.5324C1.23125 31.4784 1.18954 31.4084 1.17088 31.3312C1.15221 31.254 1.15747 31.173 1.18594 31.0987L6.35391 14.1647C6.41346 13.9775 6.54212 13.8188 6.71474 13.7196C6.85924 13.6331 7.023 13.5822 7.19196 13.5713H23.5805C23.7193 13.5726 23.8525 13.6257 23.9529 13.7196ZM15.3978 27.6868L18.4823 17.5766H9.84581L6.77292 27.6868H15.3978ZM39.5965 13.8908C39.6525 13.9545 39.7223 14.005 39.801 14.0386C39.8796 14.0722 39.9648 14.088 40.0505 14.0848H42.1805C42.2617 14.0856 42.3416 14.0661 42.4129 14.0281C42.4842 13.9902 42.5444 13.9351 42.5879 13.868C42.6257 13.8156 42.6525 13.7562 42.6665 13.6935C42.6804 13.6308 42.6814 13.566 42.6694 13.5028L42.2504 10.4903C42.2105 10.3509 42.1388 10.2221 42.0409 10.1137C41.9849 10.05 41.9151 9.99952 41.8365 9.96594C41.7579 9.93235 41.6726 9.91657 41.5869 9.91976H39.4569C39.3758 9.91899 39.2958 9.93849 39.2245 9.97642C39.1532 10.0144 39.093 10.0695 39.0495 10.1366C38.968 10.2963 38.9331 10.399 38.968 10.4903L39.3987 13.5028C39.4208 13.6495 39.4901 13.7854 39.5965 13.8908ZM46.3592 10.4675C46.3192 10.3281 46.2476 10.1993 46.1496 10.0909C46.0961 10.0275 46.0283 9.97695 45.9516 9.9433C45.8749 9.90966 45.7913 9.89379 45.7073 9.89694H43.5656C43.4859 9.89471 43.407 9.91368 43.3373 9.95185C43.2676 9.99002 43.2098 10.046 43.1699 10.1137C43.0925 10.215 43.0589 10.3421 43.0768 10.4675L43.5074 13.48C43.5345 13.6251 43.6031 13.7597 43.7053 13.868C43.7622 13.9304 43.8323 13.9801 43.9107 14.0136C43.989 14.0471 44.0738 14.0636 44.1592 14.062H46.301C46.3806 14.063 46.4589 14.0435 46.5284 14.0055C46.5979 13.9674 46.6559 13.9121 46.6967 13.8452C46.7372 13.7941 46.7655 13.7348 46.7796 13.6716C46.7937 13.6084 46.7932 13.543 46.7782 13.48L46.3592 10.4675ZM37.7226 15.0319L37.513 13.5485H27.1888C27.0267 13.5572 26.8698 13.6085 26.7348 13.6968C26.6491 13.7427 26.5744 13.8062 26.5162 13.883C26.458 13.9598 26.4174 14.0481 26.3973 14.1419L25.5359 16.9718C25.5016 17.0425 25.4898 17.1219 25.5023 17.1993C25.5148 17.2767 25.5508 17.3485 25.6058 17.4054C25.7039 17.4959 25.832 17.5486 25.9666 17.5538H38.5141L35.4296 27.664H22.917C22.7557 27.6676 22.5986 27.715 22.4631 27.8009C22.2985 27.9034 22.1783 28.0619 22.1256 28.2459L21.2526 31.0759C21.2241 31.1485 21.2166 31.2274 21.231 31.3039C21.2454 31.3805 21.281 31.4516 21.334 31.5095C21.4291 31.606 21.5582 31.6631 21.6949 31.6692H38.1299C38.2999 31.6549 38.4638 31.6001 38.6071 31.5095C38.779 31.4148 38.908 31.26 38.968 31.0759L43.6936 15.6025H38.3744C38.29 15.6041 38.2062 15.5887 38.1281 15.5573C38.05 15.5259 37.9794 15.4791 37.9205 15.4199C37.8242 15.3164 37.7562 15.1908 37.7226 15.0547V15.0319Z" fill="white"/>
</g>
<defs>
<clipPath id="clip0_22_768">
<rect width="55" height="30" fill="white" transform="translate(0 8.8468)"/>
</clipPath>
</defs>
</svg>
