<svg width="48" height="48" viewBox="0 0 48 48" fill="none" xmlns="http://www.w3.org/2000/svg">
<rect width="48" height="48" rx="8" fill="#F5F7FA"/>
<g clip-path="url(#clip0_22_769)">
<path d="M43.9965 13.4115C43.9965 13.4453 43.9965 13.4876 43.9877 13.5129C43.9437 13.8426 43.9437 14.1723 43.9701 14.5105C43.9877 14.595 44.0053 14.6795 44.0758 14.7472C44.1903 14.874 44.3664 14.8486 44.4369 14.6964C44.4722 14.6204 44.4722 14.5443 44.4545 14.4682C44.3664 14.147 44.3488 13.8088 44.34 13.4791C44.34 13.4622 44.34 13.4369 44.34 13.4115C44.4369 13.4031 44.525 13.3946 44.6042 13.3946C44.6659 13.3861 44.7188 13.3777 44.7628 13.3523C44.8949 13.2847 44.8949 13.141 44.754 13.0734C44.7011 13.048 44.6307 13.0396 44.569 13.0396C44.3488 13.048 44.1287 13.048 43.9084 13.048C43.8292 13.048 43.7499 13.0565 43.6706 13.0649C43.6266 13.0734 43.5737 13.0734 43.5385 13.0987C43.4768 13.1241 43.4417 13.1664 43.4417 13.2255C43.4504 13.2847 43.4768 13.3185 43.5385 13.3439C43.5737 13.3692 43.6178 13.3777 43.6618 13.3777C43.7675 13.3861 43.882 13.4031 43.9965 13.4115ZM46.4186 13.8004C46.4186 13.8088 46.4274 13.8173 46.4274 13.8173C46.4627 14.0455 46.4979 14.2653 46.5243 14.4851C46.5332 14.5612 46.542 14.6288 46.5948 14.688C46.7093 14.8317 46.8855 14.8148 46.9647 14.6626C47 14.5865 47.0087 14.5105 46.9912 14.4259C46.9383 14.1723 46.9119 13.9187 46.859 13.6736C46.8238 13.5214 46.7798 13.3777 46.7357 13.2424C46.7093 13.1579 46.6477 13.0987 46.542 13.0903C46.4363 13.0734 46.357 13.1241 46.3129 13.2002C46.2601 13.2678 46.2161 13.3354 46.1808 13.4115C46.1192 13.5468 46.0663 13.682 45.9959 13.8088C45.987 13.8426 45.9782 13.868 45.9606 13.8934C45.9519 13.8764 45.9431 13.868 45.9431 13.868C45.8285 13.6567 45.7228 13.4453 45.6083 13.2424C45.5907 13.2255 45.5819 13.2086 45.5731 13.1917C45.5203 13.1156 45.4586 13.0734 45.3617 13.0734C45.2736 13.0818 45.2031 13.1325 45.1592 13.2086C45.1415 13.2424 45.1415 13.2678 45.1327 13.3016C45.0975 13.5721 45.0534 13.8426 45.0182 14.1131C45.0006 14.2653 44.9918 14.4175 44.9918 14.5696C44.983 14.6034 44.9918 14.6457 45.0094 14.6795C45.027 14.7471 45.0799 14.7894 45.1503 14.7979C45.2384 14.8063 45.3 14.781 45.3265 14.7133C45.3529 14.6626 45.3617 14.6204 45.3705 14.5781C45.4058 14.4259 45.4322 14.2822 45.4586 14.1385C45.4762 14.054 45.485 13.9863 45.5115 13.8934C45.5291 13.9272 45.5466 13.9525 45.5643 13.9779C45.6435 14.0793 45.7228 14.1808 45.8197 14.2653C45.9166 14.3329 45.9959 14.3245 46.0751 14.2484C46.0928 14.2315 46.1016 14.223 46.1192 14.2061C46.1985 14.0878 46.2954 13.9694 46.3746 13.8511C46.3922 13.8342 46.401 13.8173 46.4186 13.8004Z" fill="#3A3B7B"/>
<path d="M26.1244 13.5776C26.0632 13.7383 26.0515 13.854 26.0798 13.9502C26.111 14.081 26.192 14.1238 26.302 14.0906C27.3366 13.845 29.6051 14.542 30.445 14.7362C30.6431 14.777 30.8042 14.5316 30.6691 14.3115C30.4718 14.0985 28.2043 13.1862 27.3391 13.1364C26.9999 13.118 26.3936 13.0346 26.1244 13.5776Z" fill="#3A3B7B"/>
<path d="M34.9904 10.6244C35.1006 10.6855 35.1622 10.7438 35.1927 10.8089C35.238 10.8942 35.2141 10.9533 35.1379 10.9835C34.4541 11.3038 33.5441 12.6829 33.1768 13.1585C33.0877 13.2679 32.8823 13.2044 32.8513 13.0244C32.8577 12.821 33.6643 11.3244 34.1145 10.9167C34.2915 10.7576 34.5837 10.4453 34.9904 10.6244Z" fill="#3A3B7B"/>
<path d="M29.5445 9.94553C29.6769 9.84971 29.8146 9.81614 29.8849 9.87841C30.9167 10.7253 31.4638 12.0664 31.8026 13.2942C31.8154 13.3228 31.8162 13.3639 31.806 13.4067C31.8017 13.4433 31.7739 13.482 31.7296 13.5119C31.6824 13.5449 31.6417 13.555 31.6225 13.5265C31.1703 12.9362 28.5875 10.6393 29.5445 9.94553Z" fill="#3A3B7B"/>
<path d="M7.69524 24.6286C7.94253 24.4519 8.21137 24.3048 8.49586 24.1906C8.7935 24.109 9.11075 24.1225 9.39966 24.2293C9.68851 24.336 9.93338 24.5301 10.0971 24.7823C10.2435 25.0338 10.3008 25.3242 10.2604 25.6097C10.2199 25.8952 10.084 26.1603 9.87289 26.3652C9.70926 26.5313 9.52348 26.676 9.3205 26.7956C8.41582 27.3565 7.50308 27.8867 6.59039 28.4476C6.40363 28.588 6.20551 28.714 5.99793 28.8242C5.68217 28.9753 5.32132 29.0158 4.97776 28.9386C4.6342 28.8615 4.32955 28.6715 4.11648 28.4016C3.95719 28.2104 3.82277 28.0014 3.71616 27.7791C2.8515 26.0348 1.95481 24.2982 1.12217 22.5231C0.737866 21.7548 0.425627 20.8711 0.121393 20.0181C-0.010233 19.7703 -0.0359366 19.483 0.0497553 19.2173C0.135447 18.9515 0.325774 18.7284 0.580249 18.5952C0.834727 18.4621 1.13327 18.4295 1.4124 18.5044C1.69152 18.5793 1.92921 18.7557 2.0749 18.9961C2.52271 19.5673 2.91911 20.174 3.25981 20.8096C4.12448 22.3464 4.94912 23.8832 5.78176 25.374C5.83024 25.4564 5.8837 25.5358 5.94188 25.6122C6.56859 25.3593 7.15803 25.0286 7.69524 24.6286Z" fill="#3A3B7B"/>
<path d="M16.6354 24.0925C14.6579 26.3132 11.3433 25.7523 9.67801 22.8938C8.49308 20.8652 8.28493 17.5149 10.8629 15.4017C11.4135 14.9593 12.0717 14.658 12.7764 14.5257C13.6404 14.4069 14.5214 14.5532 15.2936 14.9437C16.0657 15.3343 16.6895 15.9491 17.0757 16.7004C18.4848 19.1593 18.2847 22.2944 16.6354 24.0925ZM15.8347 18.9134C15.6247 18.3091 15.2032 17.7933 14.6418 17.4534C14.3242 17.2361 13.9382 17.1304 13.5489 17.1542C13.1595 17.178 12.7906 17.3298 12.5042 17.584C11.3593 18.5599 11.1191 20.8729 11.9517 22.2483C12.0579 22.4726 12.2137 22.6719 12.4085 22.8324C12.6033 22.9928 12.8323 23.1104 13.0793 23.177C13.3264 23.2436 13.5857 23.2576 13.839 23.218C14.0923 23.1783 14.3335 23.086 14.5458 22.9476C15.1664 22.4857 15.6217 21.8498 15.8484 21.1283C16.0751 20.4066 16.062 19.6352 15.8108 18.9211L15.8347 18.9134Z" fill="#3A3B7B"/>
<path d="M24.7055 19.8816C24.5031 19.9234 24.294 19.9259 24.0904 19.8889C23.887 19.8519 23.6932 19.7763 23.5207 19.6665C23.3697 19.5836 23.2397 19.4696 23.14 19.3327C23.0405 19.1958 22.9737 19.0395 22.9446 18.8748C22.9155 18.7103 22.9248 18.5415 22.9718 18.3808C23.0188 18.22 23.1024 18.0713 23.2164 17.9452C23.4152 17.6918 23.6973 17.5105 24.0171 17.4304C24.8518 17.1978 25.7112 17.0561 26.579 17.0078C26.7697 16.9865 26.9629 17.002 27.1472 17.0533C27.3316 17.1047 27.5033 17.1909 27.6525 17.3069C27.8016 17.4228 27.9252 17.5662 28.0158 17.7286C28.1064 17.891 28.1623 18.0692 28.1802 18.2526C28.4304 19.1536 28.4578 20.0982 28.2603 21.0112C27.5398 23.9619 25.0578 24.9762 22.2717 24.031C21.4896 23.7783 20.8039 23.3075 20.3022 22.6786C19.633 21.9214 19.1586 21.0239 18.9171 20.0584C18.7214 19.1986 18.7428 18.3064 18.9797 17.4563C19.2164 16.6061 19.6616 15.8226 20.2781 15.1712C20.8632 14.4633 21.6226 13.9061 22.4879 13.5499C23.0346 13.2606 23.6744 13.1784 24.2813 13.3194C24.4189 13.3559 24.5439 13.4272 24.6432 13.5257C24.7425 13.6243 24.8125 13.7465 24.846 13.8798C24.8795 14.013 24.8752 14.1525 24.8336 14.2836C24.792 14.4148 24.7147 14.5329 24.6095 14.6257C24.4096 14.7994 24.1924 14.9538 23.961 15.0867C23.2492 15.5218 22.6298 16.0823 22.1356 16.7388C21.8116 17.1636 21.5885 17.6514 21.482 18.1678C21.3755 18.6842 21.3881 19.2167 21.5191 19.728C21.7007 20.425 22.1036 21.0507 22.672 21.5183C24.4333 23.0552 26.7231 21.5721 26.3228 19.4743C25.7384 19.6127 25.226 19.7587 24.7055 19.8816Z" fill="#3A3B7B"/>
<path d="M35.466 24.2154C32.864 25.7523 29.9017 24.2154 29.2532 20.9881C28.7809 18.6829 29.6776 15.4556 32.816 14.2261C33.4838 13.9701 34.208 13.8803 34.9216 13.9648C35.779 14.1155 36.5655 14.5206 37.1702 15.123C37.7748 15.7255 38.1674 16.4949 38.2922 17.3228C38.8206 20.066 37.6197 22.9937 35.466 24.2154ZM36.3708 19.044C36.37 18.4057 36.1347 17.788 35.7062 17.2997C35.4772 16.9977 35.1461 16.7814 34.7695 16.6874C34.3927 16.5936 33.9938 16.628 33.6406 16.7849C32.2315 17.3689 31.2388 19.4897 31.5991 21.0496C31.6266 21.2944 31.7094 21.5305 31.8419 21.7414C31.9744 21.9522 32.1532 22.1327 32.366 22.2703C32.5787 22.4079 32.8202 22.4992 33.0736 22.5379C33.327 22.5766 33.5861 22.5617 33.8328 22.4942C34.5776 22.2445 35.2225 21.7778 35.6774 21.1592C36.1325 20.5407 36.3749 19.8012 36.3708 19.044Z" fill="#3A3B7B"/>
<path d="M40.9235 24.861C40.8843 25.1422 40.7302 25.3969 40.4952 25.5692C40.2602 25.7413 39.9636 25.8169 39.6706 25.7792C39.3776 25.7415 39.1122 25.5936 38.9328 25.3681C38.7533 25.1426 38.6746 24.8579 38.7139 24.5766C38.7531 24.2954 38.9072 24.0407 39.1422 23.8685C39.3772 23.6962 39.6738 23.6207 39.9668 23.6584C40.2598 23.6961 40.5252 23.8439 40.7047 24.0695C40.8841 24.295 40.9629 24.5797 40.9235 24.861ZM40.227 14.495C40.3793 14.2718 40.6027 14.1019 40.8638 14.0105C41.125 13.9191 41.4099 13.9111 41.6761 13.9879C41.9468 14.0529 42.1859 14.2051 42.3535 14.4192C42.5211 14.6332 42.607 14.896 42.5969 15.1636C42.5616 15.5927 42.4947 16.019 42.3967 16.4391C42.1325 17.8607 41.8763 19.2822 41.5961 20.6885C41.468 21.2494 41.2999 21.7873 41.1157 22.3559C41.0516 22.5337 40.9446 22.6943 40.8035 22.8246C40.7157 22.9227 40.6037 22.9979 40.4776 23.0433C40.3515 23.0888 40.2155 23.103 40.0822 23.0846C39.949 23.0662 39.8226 23.0159 39.715 22.9382C39.6073 22.8605 39.5219 22.758 39.4665 22.6402C39.3713 22.4289 39.3196 22.2019 39.3143 21.9717C39.3143 21.0189 39.3143 20.0584 39.3784 19.0978C39.4872 17.727 39.7013 16.3658 40.0189 15.0252C40.0563 14.8456 40.1267 14.6739 40.227 14.5181V14.495Z" fill="#3A3B7B"/>
<path fill-rule="evenodd" clip-rule="evenodd" d="M4.31263 31.0358C4.2181 31.2383 4.19218 31.4642 4.23837 31.6815C4.2691 31.9679 4.3366 32.2497 4.43933 32.5203C4.56759 32.8517 4.71111 33.1794 4.88807 33.5833C4.92876 33.6762 4.97129 33.7732 5.01579 33.8753C5.25443 34.4225 5.55386 35.1218 5.95326 36.1338C6.06631 36.4213 6.1667 36.7112 6.26779 37.003C6.30862 37.1209 6.34961 37.2392 6.39156 37.3578C6.54193 37.7794 6.80067 38.1581 7.14364 38.4582C7.28927 38.6232 7.48244 38.7434 7.69904 38.8035C7.91988 38.8648 8.15474 38.8609 8.37323 38.7924C8.59171 38.7238 8.7836 38.5937 8.924 38.4189C9.06164 38.2476 9.14349 38.0412 9.1594 37.8256C9.2487 37.4055 9.21822 36.9699 9.07104 36.5649C8.83745 35.8924 8.57136 35.2189 8.26452 34.5602L8.26311 34.5573C7.75833 33.5268 7.24523 32.5033 6.70784 31.4795L6.70382 31.4723C6.5465 31.2056 6.34206 30.9671 6.09967 30.7677C5.94232 30.5897 5.72526 30.4696 5.48556 30.4282C5.24076 30.3859 4.98827 30.4285 4.77319 30.5484C4.56972 30.6599 4.40843 30.8306 4.31263 31.0358Z" fill="#3A3B7B"/>
<path fill-rule="evenodd" clip-rule="evenodd" d="M12.0224 28.4981C11.2309 28.3014 10.4043 28.2727 9.60018 28.4142C8.97737 28.473 8.36482 28.6109 7.93947 28.884C7.72314 29.023 7.54823 29.2015 7.45094 29.4284C7.35311 29.6565 7.34063 29.9173 7.42079 30.208C7.56717 30.7404 7.75725 31.2581 7.94666 31.7741L7.97734 31.8576L7.97808 31.8595C8.54839 33.3585 9.12414 34.8525 9.70513 36.3413C9.77288 36.5759 9.86869 36.8023 9.99062 37.0158L9.9929 37.0197C10.154 37.2849 10.3606 37.5221 10.604 37.7214C10.7257 37.8309 10.8762 37.9067 11.0395 37.9406C11.2043 37.9747 11.3757 37.9648 11.535 37.9119C11.6944 37.8589 11.8356 37.765 11.9431 37.6403C12.049 37.5176 12.1182 37.3699 12.1437 37.2126C12.2487 36.7854 12.2151 36.3375 12.0472 35.9292C11.9948 35.7918 11.9537 35.6513 11.9104 35.5035C11.896 35.4542 11.8814 35.404 11.8659 35.3529C13.1958 34.854 14.6109 34.1831 15.1085 32.6224C15.3033 32.083 15.3195 31.499 15.1549 30.9504C14.9901 30.4012 14.6521 29.9144 14.1873 29.557C13.5548 29.0568 12.8159 28.6953 12.0224 28.4981ZM9.82847 30.4125C9.85466 30.4052 9.88104 30.3985 9.9075 30.3922C10.7733 30.2616 11.6591 30.4357 12.4019 30.8823C12.7292 31.1007 12.8633 31.3435 12.8863 31.5771C12.9101 31.8176 12.8189 32.0782 12.6359 32.3287C12.2901 32.8019 11.6589 33.1807 11.0888 33.2513C10.6732 32.3326 10.2511 31.3768 9.82847 30.4125Z" fill="#3A3B7B"/>
<path d="M17.2991 26.8166C18.2417 26.3988 19.4092 26.3266 20.3228 26.6204C20.5529 26.6847 20.7525 26.8239 20.8876 27.014C21.0217 27.203 21.0836 27.4307 21.0629 27.6583C21.0616 27.8061 21.0238 27.9515 20.9527 28.0827C20.8803 28.2162 20.7755 28.331 20.6471 28.4175C20.5187 28.5039 20.3706 28.5594 20.2151 28.5793C20.0596 28.5992 19.9015 28.5828 19.754 28.5316L19.7428 28.5277L19.7322 28.5224C19.6568 28.4845 19.5766 28.456 19.4937 28.4374L19.4884 28.4363C18.8457 28.2724 18.2395 28.5439 18.0181 28.8775C17.9125 29.0365 17.8994 29.1971 17.9873 29.3431C18.0815 29.4995 18.3126 29.675 18.7801 29.8001C18.9087 29.834 19.0405 29.8667 19.1741 29.8999C19.5438 29.9918 19.928 30.0872 20.2995 30.2195L20.3009 30.22C22.0148 30.8459 22.653 32.1421 22.4345 33.3613C22.2184 34.567 21.1693 35.6642 19.5916 35.9231C19.0176 36.0452 18.4201 36.0214 17.8585 35.8541C17.2954 35.6862 16.7879 35.3799 16.3863 34.9655L16.3758 34.9547C16.2491 34.7985 16.1638 34.6151 16.126 34.4205C16.0912 34.2448 16.1095 34.0633 16.1787 33.8973C16.2474 33.7323 16.3637 33.5894 16.5138 33.4854C16.6723 33.3674 16.8634 33.2966 17.0634 33.2818C17.2628 33.2671 17.4623 33.3087 17.6373 33.4014C17.8121 33.4825 17.9748 33.5859 18.1207 33.7089L18.1235 33.7111C18.3817 33.9378 18.6941 33.9968 18.9937 33.9421C19.2977 33.8866 19.5835 33.714 19.7673 33.485C19.95 33.2574 20.0233 32.987 19.9363 32.7246C19.8487 32.4602 19.5854 32.164 19.007 31.9164C18.8558 31.8548 18.699 31.8051 18.5359 31.7567C18.492 31.7436 18.4472 31.7307 18.402 31.7175C18.2814 31.6824 18.1573 31.6462 18.0357 31.6063C17.9519 31.5789 17.8687 31.5529 17.7864 31.5271C17.5614 31.4568 17.3421 31.3883 17.131 31.2963C16.6715 31.1462 16.2746 30.8579 15.9992 30.4741C15.7227 30.0888 15.5836 29.628 15.6025 29.1606C15.604 28.0215 16.3515 27.2367 17.2991 26.8166Z" fill="#3A3B7B"/>
<path d="M29.2488 26.6953C29.066 26.6096 28.8639 26.5689 28.6607 26.5769C28.4575 26.585 28.2595 26.6414 28.0848 26.7412C27.9111 26.8403 27.7656 26.9792 27.6614 27.1453C27.5659 27.2852 27.4998 27.4417 27.4668 27.606C27.4338 27.7702 27.4346 27.9389 27.4691 28.1027C27.5031 28.3132 27.5408 28.5179 27.5781 28.7198C27.6398 29.0539 27.6998 29.3805 27.7394 29.7135L27.7409 29.7219C27.8311 30.2441 27.8783 30.7722 27.8825 31.3015L27.8829 31.309C27.9138 31.8805 27.7108 32.441 27.3177 32.8714L27.3115 32.879C27.1836 33.0363 27.0126 33.1564 26.8175 33.2258C26.6225 33.2952 26.4113 33.3112 26.2074 33.2719C26.0035 33.2326 25.815 33.1397 25.663 33.0034C25.511 32.8672 25.4013 32.6925 25.3466 32.5C25.2298 32.0942 25.1622 31.6768 25.145 31.2562L25.3445 28.207C25.3475 28.1672 25.3508 28.1264 25.3543 28.0851C25.3619 27.9925 25.3696 27.8982 25.3729 27.8102C25.3776 27.6808 25.3735 27.5476 25.3421 27.4216C25.31 27.2928 25.2488 27.1703 25.1403 27.066C25.0329 26.9627 24.8878 26.8865 24.7053 26.8346C24.3753 26.7429 24.0963 26.7458 23.8638 26.8405C23.6311 26.9353 23.4717 27.1111 23.3589 27.3142C23.247 27.5157 23.1751 27.7541 23.1207 27.993C23.0803 28.1702 23.0479 28.3563 23.0171 28.5334C23.0064 28.5944 22.996 28.6543 22.9855 28.7125L22.9852 28.7142C22.8203 29.6854 22.7712 30.6716 22.8389 31.6535C22.8515 32.1841 22.9668 32.7079 23.179 33.1981C23.4183 33.8305 23.8519 34.3785 24.4224 34.7697C24.9941 35.1616 25.6763 35.3776 26.3788 35.389C27.0812 35.4004 27.7707 35.2067 28.356 34.8336C28.9402 34.461 29.393 33.927 29.6545 33.3023C30.0202 32.5064 30.192 31.6409 30.1565 30.7717C30.135 30.1371 30.0991 29.4977 30.0633 28.8615C30.0457 28.5494 30.0281 28.238 30.0124 27.9284C30.0045 27.6181 29.8979 27.3175 29.7068 27.0669C29.5886 26.9086 29.4312 26.7808 29.2488 26.6953Z" fill="#3A3B7B"/>
<path d="M35.7174 31.4764C35.6988 31.499 35.6793 31.5224 35.6589 31.5467C35.5102 30.7236 35.3725 29.9008 35.2345 29.0768C35.185 28.7811 35.1352 28.4842 35.0852 28.1881L35.0796 28.1551L35.0613 28.1266C35.0269 28.0728 35.0234 28.0202 35.0234 27.9079V27.8949L35.0214 27.882C34.984 27.6501 34.8747 27.4342 34.7077 27.2627C34.5412 27.0917 34.325 26.9727 34.0871 26.921C33.8496 26.8648 33.6 26.8772 33.3698 26.9567C33.1402 27.036 32.94 27.1784 32.7943 27.3663C32.6732 27.5104 32.5739 27.6703 32.4995 27.8412C32.3306 28.2092 32.1603 28.5782 31.9895 28.9481L31.9865 28.9545C31.5601 29.8781 31.1308 30.8079 30.7139 31.745L30.7127 31.748C30.4568 32.3556 30.2456 32.9958 30.0351 33.6341C29.993 33.7615 29.951 33.8889 29.9086 34.0159C29.8326 34.2173 29.7994 34.4312 29.8108 34.6451C29.797 34.8366 29.8447 35.0276 29.9477 35.1923C30.0527 35.3603 30.21 35.4926 30.3974 35.5704C30.596 35.654 30.8181 35.6717 31.0284 35.6208C31.2383 35.57 31.4247 35.4537 31.5583 35.2903C31.7288 35.0889 31.8755 34.8693 31.9952 34.6367C32.3483 33.9434 32.6857 33.2418 33.0216 32.5431C33.1516 32.2729 33.2779 32.0309 33.4216 31.7673C33.4315 31.7998 33.4416 31.8315 33.452 31.8633C33.6026 32.4996 33.8568 33.1091 34.2052 33.6695C34.2711 33.7882 34.363 33.8919 34.4744 33.9736C34.5872 34.0563 34.7174 34.1143 34.8559 34.1437C34.9944 34.1732 35.138 34.1733 35.2766 34.1441C35.415 34.115 35.5455 34.0569 35.6584 33.9747L35.8818 33.8142L37.6156 32.4125L37.5131 33.0396C37.3724 33.9016 37.2327 34.7565 37.0843 35.6115C36.9872 35.9905 36.9874 36.3863 37.0847 36.7652C37.1269 36.9784 37.2343 37.1747 37.3933 37.329C37.5537 37.4847 37.759 37.5904 37.9827 37.6326C38.2064 37.6747 38.4382 37.6513 38.6479 37.5655C38.8545 37.4809 39.0303 37.3395 39.1532 37.1592C39.4391 36.8188 39.617 36.4066 39.6659 35.9718C39.7395 35.3578 39.8226 34.7355 39.9058 34.1133C40.0016 33.3961 40.0974 32.6792 40.1783 31.976L40.1786 31.9738C40.2565 31.204 40.2942 30.4311 40.2915 29.6578C40.3086 29.4134 40.2452 29.1699 40.1101 28.9618C39.9746 28.753 39.7738 28.5907 39.5365 28.4978C39.2897 28.3901 39.0134 28.3613 38.7483 28.4158C38.4849 28.4698 38.2464 28.6031 38.0676 28.7961C37.7478 29.08 37.4478 29.3838 37.1695 29.7055L37.1676 29.7076C36.8638 30.071 36.562 30.4415 36.2622 30.8096C36.0799 31.0333 35.8982 31.2566 35.7174 31.4764Z" fill="#3A3B7B"/>
</g>
<defs>
<clipPath id="clip0_22_769">
<rect width="47" height="29" fill="white" transform="translate(0 9.8468)"/>
</clipPath>
</defs>
</svg>
