<svg width="48" height="48" viewBox="0 0 48 48" fill="none" xmlns="http://www.w3.org/2000/svg">
<rect width="48" height="48" rx="8" fill="#F5F7FA"/>
<g clip-path="url(#clip0_22_770)">
<path d="M38.4375 11.6905C38.4375 12.1565 38.8199 12.5343 39.2917 12.5343H40.1458C40.6176 12.5343 41 12.1565 41 11.6905C41 11.2246 40.6176 10.8468 40.1458 10.8468H39.2917C38.8199 10.8468 38.4375 11.2246 38.4375 11.6905Z" fill="#212326"/>
<path d="M13.6667 37.8468H17.8161L16.6081 36.6535C16.2877 36.3371 15.8532 36.1593 15.4001 36.1593H13.6667C7.06225 36.1593 1.70833 30.8707 1.70833 24.3468C1.70833 17.8229 7.06225 12.5343 13.6667 12.5343H27.3333C33.9378 12.5343 39.2917 17.8229 39.2917 24.3468C39.2917 30.8707 33.9378 36.1593 27.3333 36.1593H22.2209C21.5413 36.1593 20.8895 35.8926 20.4089 35.4179L18.9937 34.02C18.1928 33.2288 17.1064 32.7843 15.9737 32.7843H13.6667C8.94921 32.7843 5.125 29.0067 5.125 24.3468C5.125 19.6869 8.94921 15.9093 13.6667 15.9093H27.3333C32.0508 15.9093 35.875 19.6869 35.875 24.3468C35.875 29.0067 32.0508 32.7843 27.3333 32.7843H24.0507C23.371 32.7843 22.7193 32.5176 22.2387 32.0429L20.8234 30.645C20.0225 29.8538 18.9362 29.4093 17.8035 29.4093H13.6667C10.8362 29.4093 8.54167 27.1427 8.54167 24.3468C8.54167 21.5509 10.8362 19.2843 13.6667 19.2843H27.3333C30.1638 19.2843 32.4583 21.5509 32.4583 24.3468C32.4583 27.1086 30.2194 29.354 27.4367 29.4083L27.4361 29.4093H26.1861C25.5064 29.4093 24.8547 29.1426 24.3741 28.6679L22.9588 27.27C22.3017 26.6207 21.4524 26.205 20.5429 26.0767L20.5 26.0343H13.6667C12.7232 26.0343 11.9583 25.2788 11.9583 24.3468C11.9583 23.4148 12.7232 22.6593 13.6667 22.6593H27.3333C28.2768 22.6593 29.0417 23.4148 29.0417 24.3468C29.0417 25.2788 28.2768 26.0343 27.3333 26.0343H23.9167L25.1247 27.2276C25.445 27.544 25.8795 27.7218 26.3326 27.7218H27.3333C29.2203 27.7218 30.75 26.2107 30.75 24.3468C30.75 22.4829 29.2203 20.9718 27.3333 20.9718H13.6667C11.7797 20.9718 10.25 22.4829 10.25 24.3468C10.25 26.2107 11.7797 27.7218 13.6667 27.7218H19.9389C20.6186 27.7218 21.2703 27.9885 21.7509 28.4632L23.1662 29.8611C23.9671 30.6523 25.0534 31.0968 26.1861 31.0968H27.7604V31.0838C31.3354 30.8661 34.1667 27.933 34.1667 24.3468C34.1667 20.6189 31.1072 17.5968 27.3333 17.5968H13.6667C9.89275 17.5968 6.83333 20.6189 6.83333 24.3468C6.83333 28.0748 9.89275 31.0968 13.6667 31.0968H17.8035C18.4831 31.0968 19.1349 31.3635 19.6155 31.8382L21.0307 33.2361C21.8317 34.0273 22.918 34.4718 24.0507 34.4718H27.3333C32.9943 34.4718 37.5833 29.9387 37.5833 24.3468C37.5833 18.7549 32.9943 14.2218 27.3333 14.2218H13.6667C8.00573 14.2218 3.41667 18.7549 3.41667 24.3468C3.41667 29.9387 8.00573 34.4718 13.6667 34.4718H15.9737C16.6534 34.4718 17.3051 34.7385 17.7857 35.2132L19.201 36.6111C20.0019 37.4023 21.0882 37.8468 22.2209 37.8468H27.3333C34.8812 37.8468 41 31.8027 41 24.3468C41 16.891 34.8812 10.8468 27.3333 10.8468L13.6667 10.8468C6.11877 10.8468 -6.59857e-07 16.891 0 24.3468C6.59857e-07 31.8027 6.11878 37.8468 13.6667 37.8468Z" fill="#212326"/>
</g>
<defs>
<clipPath id="clip0_22_770">
<rect width="41" height="27" fill="white" transform="translate(0 10.8468)"/>
</clipPath>
</defs>
</svg>
