<svg width="47" height="29" viewBox="0 0 47 29" fill="none" xmlns="http://www.w3.org/2000/svg">
<g clip-path="url(#clip0_211_828)">
<path d="M43.9965 3.56471C43.9965 3.59852 43.9965 3.64079 43.9877 3.66615C43.9437 3.99583 43.9437 4.32552 43.9701 4.66366C43.9877 4.74819 44.0053 4.83273 44.0758 4.90035C44.1903 5.02715 44.3664 5.0018 44.4369 4.84963C44.4722 4.77355 44.4722 4.69747 44.4545 4.62139C44.3664 4.30015 44.3488 3.96202 44.34 3.63233C44.34 3.61542 44.34 3.59006 44.34 3.56471C44.4369 3.55625 44.525 3.54779 44.6042 3.54779C44.6659 3.53935 44.7188 3.53089 44.7628 3.50553C44.8949 3.4379 44.8949 3.2942 44.754 3.22657C44.7011 3.20121 44.6307 3.19275 44.569 3.19275C44.3488 3.20121 44.1287 3.20121 43.9084 3.20121C43.8292 3.20121 43.7499 3.20966 43.6706 3.21811C43.6266 3.22657 43.5737 3.22657 43.5385 3.25193C43.4768 3.27728 43.4417 3.31955 43.4417 3.37872C43.4504 3.4379 43.4768 3.47172 43.5385 3.49708C43.5737 3.52244 43.6178 3.53089 43.6618 3.53089C43.7675 3.53935 43.882 3.55625 43.9965 3.56471ZM46.4186 3.95356C46.4186 3.96202 46.4274 3.97047 46.4274 3.97047C46.4627 4.19871 46.4979 4.41851 46.5243 4.63829C46.5332 4.71437 46.542 4.782 46.5948 4.84117C46.7093 4.98488 46.8855 4.96798 46.9647 4.81582C47 4.73973 47.0087 4.66366 46.9912 4.57912C46.9383 4.32552 46.9119 4.07191 46.859 3.82676C46.8238 3.6746 46.7798 3.53089 46.7357 3.39564C46.7093 3.3111 46.6477 3.25192 46.542 3.24347C46.4363 3.22657 46.357 3.27728 46.3129 3.35337C46.2601 3.42099 46.2161 3.48862 46.1808 3.56471C46.1192 3.69996 46.0663 3.83522 45.9959 3.96202C45.987 3.99583 45.9782 4.02119 45.9606 4.04655C45.9519 4.02964 45.9431 4.02119 45.9431 4.02119C45.8285 3.80986 45.7228 3.59852 45.6083 3.39564C45.5907 3.37872 45.5819 3.36182 45.5731 3.34491C45.5203 3.26883 45.4586 3.22657 45.3617 3.22657C45.2736 3.23502 45.2031 3.28574 45.1592 3.36182C45.1415 3.39564 45.1415 3.42099 45.1327 3.45481C45.0975 3.72532 45.0534 3.99583 45.0182 4.26634C45.0006 4.41851 44.9918 4.57066 44.9918 4.72283C44.983 4.75664 44.9918 4.79891 45.0094 4.83273C45.027 4.90035 45.0799 4.94262 45.1503 4.95107C45.2384 4.95953 45.3 4.93417 45.3265 4.86654C45.3529 4.81582 45.3617 4.77355 45.3705 4.73128C45.4058 4.57912 45.4322 4.43541 45.4586 4.2917C45.4762 4.20717 45.485 4.13954 45.5115 4.04655C45.5291 4.08037 45.5466 4.10573 45.5643 4.13108C45.6435 4.23253 45.7228 4.33397 45.8197 4.41851C45.9166 4.48613 45.9959 4.47768 46.0751 4.40159C46.0928 4.38469 46.1016 4.37624 46.1192 4.35933C46.1985 4.24098 46.2954 4.12263 46.3746 4.00428C46.3922 3.98738 46.401 3.97047 46.4186 3.95356Z" fill="#3A3B7B"/>
<path d="M26.1244 3.7308C26.0632 3.89145 26.0515 4.0072 26.0798 4.1034C26.111 4.23421 26.192 4.27704 26.302 4.24377C27.3366 3.99824 29.6051 4.69516 30.445 4.8894C30.6431 4.93019 30.8042 4.68478 30.6691 4.46475C30.4718 4.25166 28.2043 3.33937 27.3391 3.28963C26.9999 3.27123 26.3936 3.18776 26.1244 3.7308Z" fill="#3A3B7B"/>
<path d="M34.9904 0.777552C35.1006 0.83863 35.1622 0.896894 35.1927 0.961992C35.238 1.04738 35.2141 1.10646 35.1379 1.13661C34.4541 1.45694 33.5441 2.83603 33.1768 3.31166C33.0877 3.42108 32.8823 3.3575 32.8513 3.17757C32.8577 2.97412 33.6643 1.4775 34.1145 1.06987C34.2915 0.910722 34.5837 0.598449 34.9904 0.777552Z" fill="#3A3B7B"/>
<path d="M29.5445 0.0987292C29.6769 0.00291244 29.8146 -0.0306646 29.8849 0.0316042C30.9167 0.878502 31.4638 2.21964 31.8026 3.44742C31.8154 3.47603 31.8162 3.51707 31.806 3.5599C31.8017 3.59649 31.7739 3.63516 31.7296 3.66507C31.6824 3.6981 31.6417 3.70816 31.6225 3.6797C31.1703 3.08937 28.5875 0.792504 29.5445 0.0987292Z" fill="#3A3B7B"/>
<path d="M7.69524 14.7818C7.94253 14.6051 8.21137 14.458 8.49586 14.3438C8.7935 14.2622 9.11075 14.2757 9.39966 14.3825C9.68851 14.4892 9.93338 14.6833 10.0971 14.9355C10.2435 15.187 10.3008 15.4774 10.2604 15.7629C10.2199 16.0484 10.084 16.3135 9.87289 16.5184C9.70926 16.6845 9.52348 16.8292 9.3205 16.9488C8.41582 17.5097 7.50308 18.0399 6.59039 18.6008C6.40363 18.7412 6.20551 18.8672 5.99793 18.9774C5.68217 19.1285 5.32132 19.169 4.97776 19.0918C4.6342 19.0147 4.32955 18.8247 4.11648 18.5548C3.95719 18.3636 3.82277 18.1546 3.71616 17.9323C2.8515 16.188 1.95481 14.4514 1.12217 12.6763C0.737866 11.908 0.425627 11.0243 0.121393 10.1713C-0.010233 9.92351 -0.0359366 9.63621 0.0497553 9.37047C0.135447 9.10472 0.325774 8.88155 0.580249 8.74842C0.834727 8.61528 1.13327 8.58272 1.4124 8.65759C1.69152 8.73247 1.92921 8.90891 2.0749 9.14934C2.52271 9.72051 2.91911 10.3272 3.25981 10.9628C4.12448 12.4996 4.94912 14.0364 5.78176 15.5272C5.83024 15.6096 5.8837 15.689 5.94188 15.7654C6.56859 15.5125 7.15803 15.1818 7.69524 14.7818Z" fill="#3A3B7B"/>
<path d="M16.6354 14.2457C14.6579 16.4663 11.3433 15.9054 9.67801 13.0469C8.49308 11.0183 8.28493 7.66801 10.8629 5.55488C11.4135 5.11248 12.0717 4.81111 12.7764 4.67888C13.6404 4.56 14.5214 4.70629 15.2936 5.09686C16.0657 5.48742 16.6895 6.10226 17.0757 6.85351C18.4848 9.31244 18.2847 12.4475 16.6354 14.2457ZM15.8347 9.06654C15.6247 8.46228 15.2032 7.94641 14.6418 7.60652C14.3242 7.38922 13.9382 7.28356 13.5489 7.30736C13.1595 7.33115 12.7906 7.48294 12.5042 7.73715C11.3593 8.71307 11.1191 11.026 11.9517 12.4015C12.0579 12.6258 12.2137 12.8251 12.4085 12.9855C12.6033 13.1459 12.8323 13.2636 13.0793 13.3301C13.3264 13.3968 13.5857 13.4107 13.839 13.3711C14.0923 13.3314 14.3335 13.2392 14.5458 13.1007C15.1664 12.6389 15.6217 12.003 15.8484 11.2814C16.0751 10.5598 16.062 9.78831 15.8108 9.07425L15.8347 9.06654Z" fill="#3A3B7B"/>
<path d="M24.7055 10.0348C24.5031 10.0766 24.294 10.0791 24.0904 10.0421C23.887 10.0051 23.6932 9.92954 23.5207 9.81967C23.3697 9.73676 23.2397 9.6228 23.14 9.48591C23.0405 9.34901 22.9737 9.19268 22.9446 9.02804C22.9155 8.86346 22.9248 8.69473 22.9718 8.53398C23.0188 8.37323 23.1024 8.22447 23.2164 8.09839C23.4152 7.84503 23.6973 7.66365 24.0171 7.58357C24.8518 7.35104 25.7112 7.20927 26.579 7.16096C26.7697 7.13967 26.9629 7.15516 27.1472 7.20651C27.3316 7.25792 27.5033 7.34406 27.6525 7.46006C27.8016 7.57599 27.9252 7.71941 28.0158 7.88181C28.1064 8.04421 28.1623 8.22236 28.1802 8.40579C28.4304 9.30677 28.4578 10.2514 28.2603 11.1644C27.5398 14.1151 25.0578 15.1294 22.2717 14.1842C21.4896 13.9315 20.8039 13.4607 20.3022 12.8318C19.633 12.0746 19.1586 11.1771 18.9171 10.2116C18.7214 9.35178 18.7428 8.45964 18.9797 7.60947C19.2164 6.75931 19.6616 5.97582 20.2781 5.32444C20.8632 4.61646 21.6226 4.05929 22.4879 3.70308C23.0346 3.41384 23.6744 3.3316 24.2813 3.47256C24.4189 3.50912 24.5439 3.58037 24.6432 3.67891C24.7425 3.77746 24.8125 3.8997 24.846 4.03298C24.8795 4.16624 24.8752 4.30569 24.8336 4.43685C24.792 4.568 24.7147 4.68609 24.6095 4.77886C24.4096 4.95257 24.1924 5.10699 23.961 5.23991C23.2492 5.67496 22.6298 6.23555 22.1356 6.89199C21.8116 7.31677 21.5885 7.80457 21.482 8.32096C21.3755 8.83736 21.3881 9.36991 21.5191 9.88116C21.7007 10.5782 22.1036 11.2039 22.672 11.6715C24.4333 13.2084 26.7231 11.7253 26.3228 9.62754C25.7384 9.76589 25.226 9.91188 24.7055 10.0348Z" fill="#3A3B7B"/>
<path d="M35.466 14.3686C32.864 15.9055 29.9017 14.3686 29.2532 11.1413C28.7809 8.83611 29.6776 5.60875 32.816 4.37929C33.4838 4.12333 34.208 4.03346 34.9216 4.11802C35.779 4.26866 36.5655 4.67376 37.1702 5.27621C37.7748 5.87866 38.1674 6.64806 38.2922 7.47601C38.8206 10.2192 37.6197 13.1469 35.466 14.3686ZM36.3708 9.19722C36.37 8.55889 36.1347 7.94119 35.7062 7.45294C35.4772 7.15094 35.1461 6.93456 34.7695 6.84064C34.3927 6.74679 33.9938 6.78119 33.6406 6.93812C32.2315 7.52208 31.2388 9.6429 31.5991 11.2028C31.6266 11.4476 31.7094 11.6837 31.8419 11.8946C31.9744 12.1054 32.1532 12.2859 32.366 12.4235C32.5787 12.5611 32.8202 12.6524 33.0736 12.6911C33.327 12.7298 33.5861 12.7149 33.8328 12.6474C34.5776 12.3977 35.2225 11.931 35.6774 11.3124C36.1325 10.6939 36.3749 9.95439 36.3708 9.19722Z" fill="#3A3B7B"/>
<path d="M40.9235 15.0141C40.8843 15.2953 40.7302 15.5501 40.4952 15.7223C40.2602 15.8945 39.9636 15.9701 39.6706 15.9324C39.3776 15.8947 39.1122 15.7468 38.9328 15.5212C38.7533 15.2957 38.6746 15.011 38.7139 14.7298C38.7531 14.4485 38.9072 14.1938 39.1422 14.0216C39.3772 13.8494 39.6738 13.7738 39.9668 13.8115C40.2598 13.8492 40.5252 13.9971 40.7047 14.2226C40.8841 14.4482 40.9629 14.7329 40.9235 15.0141ZM40.227 4.64817C40.3793 4.42497 40.6027 4.255 40.8638 4.1636C41.125 4.07221 41.4099 4.06429 41.6761 4.14102C41.9468 4.20602 42.1859 4.35827 42.3535 4.5723C42.5211 4.78633 42.607 5.04913 42.5969 5.3167C42.5616 5.74588 42.4947 6.17213 42.3967 6.59225C42.1325 8.01384 41.8763 9.43537 41.5961 10.8416C41.468 11.4026 41.2999 11.9404 41.1157 12.509C41.0516 12.6868 40.9446 12.8474 40.8035 12.9778C40.7157 13.0759 40.6037 13.1511 40.4776 13.1965C40.3515 13.242 40.2155 13.2561 40.0822 13.2377C39.949 13.2193 39.8226 13.169 39.715 13.0913C39.6073 13.0136 39.5219 12.9112 39.4665 12.7934C39.3713 12.5821 39.3196 12.355 39.3143 12.1249C39.3143 11.172 39.3143 10.2115 39.3784 9.25096C39.4872 7.88018 39.7013 6.51894 40.0189 5.17838C40.0563 4.99878 40.1267 4.82703 40.227 4.67123V4.64817Z" fill="#3A3B7B"/>
<path fill-rule="evenodd" clip-rule="evenodd" d="M4.31263 21.1889C4.2181 21.3915 4.19218 21.6173 4.23837 21.8346C4.2691 22.121 4.3366 22.4028 4.43933 22.6734C4.56759 23.0048 4.71111 23.3325 4.88807 23.7364C4.92876 23.8293 4.97129 23.9263 5.01579 24.0284C5.25443 24.5756 5.55386 25.2749 5.95326 26.2869C6.06631 26.5744 6.1667 26.8643 6.26779 27.1562C6.30862 27.2741 6.34961 27.3924 6.39156 27.5109C6.54193 27.9325 6.80067 28.3112 7.14364 28.6114C7.28927 28.7763 7.48244 28.8966 7.69904 28.9567C7.91988 29.018 8.15474 29.0141 8.37323 28.9455C8.59171 28.8769 8.7836 28.7468 8.924 28.5721C9.06164 28.4008 9.14349 28.1944 9.1594 27.9787C9.2487 27.5586 9.21822 27.123 9.07104 26.718C8.83745 26.0455 8.57136 25.3721 8.26452 24.7134L8.26311 24.7105C7.75833 23.6799 7.24523 22.6565 6.70784 21.6326L6.70382 21.6255C6.5465 21.3587 6.34206 21.1203 6.09967 20.9208C5.94232 20.7428 5.72526 20.6227 5.48556 20.5813C5.24076 20.5391 4.98827 20.5817 4.77319 20.7015C4.56972 20.8131 4.40843 20.9837 4.31263 21.1889Z" fill="#3A3B7B"/>
<path fill-rule="evenodd" clip-rule="evenodd" d="M12.0224 18.6513C11.2309 18.4546 10.4043 18.4259 9.60018 18.5674C8.97737 18.6262 8.36482 18.7641 7.93947 19.0372C7.72314 19.1762 7.54823 19.3547 7.45094 19.5816C7.35311 19.8097 7.34063 20.0705 7.42079 20.3612C7.56717 20.8936 7.75725 21.4113 7.94666 21.9273L7.97734 22.0108L7.97808 22.0127C8.54839 23.5117 9.12414 25.0057 9.70513 26.4945C9.77288 26.7291 9.86869 26.9555 9.99062 27.169L9.9929 27.1729C10.154 27.4381 10.3606 27.6753 10.604 27.8746C10.7257 27.9841 10.8762 28.0599 11.0395 28.0938C11.2043 28.1279 11.3757 28.118 11.535 28.0651C11.6944 28.0121 11.8356 27.9182 11.9431 27.7935C12.049 27.6708 12.1182 27.5231 12.1437 27.3658C12.2487 26.9386 12.2151 26.4907 12.0472 26.0824C11.9948 25.945 11.9537 25.8045 11.9104 25.6567C11.896 25.6074 11.8814 25.5572 11.8659 25.5061C13.1958 25.0072 14.6109 24.3363 15.1085 22.7756C15.3033 22.2362 15.3195 21.6522 15.1549 21.1036C14.9901 20.5544 14.6521 20.0676 14.1873 19.7102C13.5548 19.21 12.8159 18.8485 12.0224 18.6513ZM9.82847 20.5657C9.85466 20.5584 9.88104 20.5517 9.9075 20.5454C10.7733 20.4148 11.6591 20.5889 12.4019 21.0355C12.7292 21.2539 12.8633 21.4967 12.8863 21.7303C12.9101 21.9708 12.8189 22.2314 12.6359 22.4819C12.2901 22.9551 11.6589 23.3339 11.0888 23.4045C10.6732 22.4858 10.2511 21.53 9.82847 20.5657Z" fill="#3A3B7B"/>
<path d="M17.2991 16.9697C18.2417 16.552 19.4092 16.4798 20.3228 16.7735C20.5529 16.8379 20.7525 16.977 20.8876 17.1671C21.0217 17.3561 21.0836 17.5838 21.0629 17.8115C21.0616 17.9592 21.0238 18.1046 20.9527 18.2358C20.8803 18.3693 20.7755 18.4841 20.6471 18.5706C20.5187 18.657 20.3706 18.7126 20.2151 18.7324C20.0596 18.7523 19.9015 18.736 19.754 18.6848L19.7428 18.6809L19.7322 18.6755C19.6568 18.6376 19.5766 18.6091 19.4937 18.5905L19.4884 18.5894C18.8457 18.4255 18.2395 18.697 18.0181 19.0306C17.9125 19.1896 17.8994 19.3502 17.9873 19.4962C18.0815 19.6526 18.3126 19.8282 18.7801 19.9533C18.9087 19.9871 19.0405 20.0198 19.1741 20.053C19.5438 20.1449 19.928 20.2404 20.2995 20.3726L20.3009 20.3732C22.0148 20.999 22.653 22.2953 22.4345 23.5145C22.2184 24.7201 21.1693 25.8174 19.5916 26.0762C19.0176 26.1983 18.4201 26.1745 17.8585 26.0072C17.2954 25.8393 16.7879 25.5331 16.3863 25.1186L16.3758 25.1078C16.2491 24.9517 16.1638 24.7682 16.126 24.5736C16.0912 24.398 16.1095 24.2165 16.1787 24.0504C16.2474 23.8854 16.3637 23.7426 16.5138 23.6385C16.6723 23.5205 16.8634 23.4497 17.0634 23.435C17.2628 23.4203 17.4623 23.4619 17.6373 23.5545C17.8121 23.6356 17.9748 23.739 18.1207 23.862L18.1235 23.8642C18.3817 24.0909 18.6941 24.15 18.9937 24.0952C19.2977 24.0398 19.5835 23.8671 19.7673 23.6381C19.95 23.4105 20.0233 23.1402 19.9363 22.8777C19.8487 22.6133 19.5854 22.3172 19.007 22.0695C18.8558 22.0079 18.699 21.9582 18.5359 21.9098C18.492 21.8968 18.4472 21.8838 18.402 21.8706C18.2814 21.8355 18.1573 21.7993 18.0357 21.7594C17.9519 21.732 17.8687 21.706 17.7864 21.6803C17.5614 21.6099 17.3421 21.5414 17.131 21.4495C16.6715 21.2993 16.2746 21.011 15.9992 20.6272C15.7227 20.2419 15.5836 19.7812 15.6025 19.3137C15.604 18.1746 16.3515 17.3899 17.2991 16.9697Z" fill="#3A3B7B"/>
<path d="M29.2488 16.8485C29.066 16.7628 28.8639 16.7221 28.6607 16.7301C28.4575 16.7381 28.2595 16.7946 28.0848 16.8944C27.9111 16.9935 27.7656 17.1324 27.6614 17.2985C27.5659 17.4384 27.4998 17.5949 27.4668 17.7592C27.4338 17.9234 27.4346 18.0921 27.4691 18.2559C27.5031 18.4664 27.5408 18.6711 27.5781 18.873C27.6398 19.2071 27.6998 19.5337 27.7394 19.8667L27.7409 19.8751C27.8311 20.3973 27.8783 20.9254 27.8825 21.4547L27.8829 21.4622C27.9138 22.0337 27.7108 22.5942 27.3177 23.0246L27.3115 23.0322C27.1836 23.1895 27.0126 23.3096 26.8175 23.379C26.6225 23.4484 26.4113 23.4644 26.2074 23.4251C26.0035 23.3858 25.815 23.2929 25.663 23.1566C25.511 23.0204 25.4013 22.8457 25.3466 22.6532C25.2298 22.2474 25.1622 21.83 25.145 21.4094L25.3445 18.3602C25.3475 18.3204 25.3508 18.2796 25.3543 18.2383C25.3619 18.1457 25.3696 18.0514 25.3729 17.9634C25.3776 17.834 25.3735 17.7008 25.3421 17.5748C25.31 17.446 25.2488 17.3235 25.1403 17.2192C25.0329 17.1159 24.8878 17.0397 24.7053 16.9878C24.3753 16.8961 24.0963 16.899 23.8638 16.9937C23.6311 17.0885 23.4717 17.2643 23.3589 17.4674C23.247 17.6689 23.1751 17.9073 23.1207 18.1462C23.0803 18.3234 23.0479 18.5095 23.0171 18.6866C23.0064 18.7476 22.996 18.8075 22.9855 18.8657L22.9852 18.8674C22.8203 19.8386 22.7712 20.8248 22.8389 21.8067C22.8515 22.3373 22.9668 22.8611 23.179 23.3513C23.4183 23.9837 23.8519 24.5317 24.4224 24.9229C24.9941 25.3148 25.6763 25.5308 26.3788 25.5422C27.0812 25.5536 27.7707 25.3599 28.356 24.9868C28.9402 24.6142 29.393 24.0802 29.6545 23.4555C30.0202 22.6596 30.192 21.7941 30.1565 20.9249C30.135 20.2903 30.0991 19.6509 30.0633 19.0146C30.0457 18.7026 30.0281 18.3911 30.0124 18.0816C30.0045 17.7713 29.8979 17.4707 29.7068 17.2201C29.5886 17.0618 29.4312 16.934 29.2488 16.8485Z" fill="#3A3B7B"/>
<path d="M35.7174 21.6296C35.6988 21.6522 35.6793 21.6756 35.6589 21.6999C35.5102 20.8768 35.3725 20.054 35.2345 19.23C35.185 18.9343 35.1352 18.6374 35.0852 18.3413L35.0796 18.3083L35.0613 18.2797C35.0269 18.226 35.0234 18.1734 35.0234 18.0611V18.0481L35.0214 18.0352C34.984 17.8033 34.8747 17.5874 34.7077 17.4159C34.5412 17.2449 34.325 17.1259 34.0871 17.0742C33.8496 17.018 33.6 17.0304 33.3698 17.1099C33.1402 17.1892 32.94 17.3316 32.7943 17.5195C32.6732 17.6636 32.5739 17.8235 32.4995 17.9944C32.3306 18.3624 32.1603 18.7314 31.9895 19.1013L31.9865 19.1077C31.5601 20.0313 31.1308 20.9611 30.7139 21.8982L30.7127 21.9012C30.4568 22.5088 30.2456 23.149 30.0351 23.7873C29.993 23.9147 29.951 24.042 29.9086 24.1691C29.8326 24.3705 29.7994 24.5844 29.8108 24.7983C29.797 24.9898 29.8447 25.1808 29.9477 25.3455C30.0527 25.5135 30.21 25.6457 30.3974 25.7236C30.596 25.8072 30.8181 25.8249 31.0284 25.774C31.2383 25.7232 31.4247 25.6069 31.5583 25.4435C31.7288 25.2421 31.8755 25.0225 31.9952 24.7899C32.3483 24.0966 32.6857 23.395 33.0216 22.6963C33.1516 22.4261 33.2779 22.1841 33.4216 21.9205C33.4315 21.953 33.4416 21.9847 33.452 22.0165C33.6026 22.6528 33.8568 23.2623 34.2052 23.8227C34.2711 23.9414 34.363 24.0451 34.4744 24.1268C34.5872 24.2095 34.7174 24.2675 34.8559 24.2969C34.9944 24.3264 35.138 24.3265 35.2766 24.2973C35.415 24.2682 35.5455 24.2101 35.6584 24.1279L35.8818 23.9674L37.6156 22.5657L37.5131 23.1928C37.3724 24.0548 37.2327 24.9097 37.0843 25.7647C36.9872 26.1437 36.9874 26.5395 37.0847 26.9184C37.1269 27.1316 37.2343 27.3279 37.3933 27.4822C37.5537 27.6379 37.759 27.7436 37.9827 27.7858C38.2064 27.8279 38.4382 27.8045 38.6479 27.7187C38.8545 27.6341 39.0303 27.4927 39.1532 27.3124C39.4391 26.972 39.617 26.5598 39.6659 26.125C39.7395 25.511 39.8226 24.8887 39.9058 24.2665C40.0016 23.5493 40.0974 22.8324 40.1783 22.1292L40.1786 22.127C40.2565 21.3572 40.2942 20.5843 40.2915 19.8109C40.3086 19.5666 40.2452 19.3231 40.1101 19.115C39.9746 18.9062 39.7738 18.7439 39.5365 18.651C39.2897 18.5433 39.0134 18.5145 38.7483 18.569C38.4849 18.623 38.2464 18.7563 38.0676 18.9493C37.7478 19.2332 37.4478 19.537 37.1695 19.8587L37.1676 19.8608C36.8638 20.2242 36.562 20.5947 36.2622 20.9628C36.0799 21.1865 35.8982 21.4098 35.7174 21.6296Z" fill="#3A3B7B"/>
</g>
<defs>
<clipPath id="clip0_211_828">
<rect width="47" height="29" fill="white"/>
</clipPath>
</defs>
</svg>
