<svg width="41" height="27" viewBox="0 0 41 27" fill="none" xmlns="http://www.w3.org/2000/svg">
<g clip-path="url(#clip0_211_844)">
<path d="M38.4375 0.843748C38.4375 1.30974 38.8199 1.6875 39.2917 1.6875H40.1458C40.6176 1.6875 41 1.30974 41 0.843748C41 0.37776 40.6176 0 40.1458 0H39.2917C38.8199 0 38.4375 0.37776 38.4375 0.843748Z" fill="#212326"/>
<path d="M13.6667 27H17.8161L16.6081 25.8067C16.2877 25.4903 15.8532 25.3125 15.4001 25.3125H13.6667C7.06225 25.3125 1.70833 20.0239 1.70833 13.5C1.70833 6.97613 7.06225 1.68751 13.6667 1.6875H27.3333C33.9378 1.6875 39.2917 6.97613 39.2917 13.5C39.2917 20.0239 33.9378 25.3125 27.3333 25.3125H22.2209C21.5413 25.3125 20.8895 25.0458 20.4089 24.5711L18.9937 23.1732C18.1928 22.382 17.1064 21.9375 15.9737 21.9375H13.6667C8.94921 21.9375 5.125 18.1599 5.125 13.5C5.125 8.84007 8.94921 5.0625 13.6667 5.0625H27.3333C32.0508 5.0625 35.875 8.84007 35.875 13.5C35.875 18.1599 32.0508 21.9375 27.3333 21.9375H24.0507C23.371 21.9375 22.7193 21.6708 22.2387 21.1961L20.8234 19.7982C20.0225 19.007 18.9362 18.5625 17.8035 18.5625H13.6667C10.8362 18.5625 8.54167 16.2959 8.54167 13.5C8.54167 10.7041 10.8362 8.4375 13.6667 8.4375H27.3333C30.1638 8.4375 32.4583 10.7041 32.4583 13.5C32.4583 16.2618 30.2194 18.5072 27.4367 18.5615L27.4361 18.5625H26.1861C25.5064 18.5625 24.8547 18.2958 24.3741 17.8211L22.9588 16.4232C22.3017 15.7739 21.4524 15.3582 20.5429 15.2299L20.5 15.1875H13.6667C12.7232 15.1875 11.9583 14.432 11.9583 13.5C11.9583 12.568 12.7232 11.8125 13.6667 11.8125H27.3333C28.2768 11.8125 29.0417 12.568 29.0417 13.5C29.0417 14.432 28.2768 15.1875 27.3333 15.1875H23.9167L25.1247 16.3808C25.445 16.6972 25.8795 16.875 26.3326 16.875H27.3333C29.2203 16.875 30.75 15.3639 30.75 13.5C30.75 11.6361 29.2203 10.125 27.3333 10.125H13.6667C11.7797 10.125 10.25 11.6361 10.25 13.5C10.25 15.3639 11.7797 16.875 13.6667 16.875H19.9389C20.6186 16.875 21.2703 17.1417 21.7509 17.6164L23.1662 19.0143C23.9671 19.8055 25.0534 20.25 26.1861 20.25H27.7604V20.237C31.3354 20.0193 34.1667 17.0862 34.1667 13.5C34.1667 9.77211 31.1072 6.75 27.3333 6.75H13.6667C9.89275 6.75 6.83333 9.77211 6.83333 13.5C6.83333 17.228 9.89275 20.25 13.6667 20.25H17.8035C18.4831 20.25 19.1349 20.5167 19.6155 20.9914L21.0307 22.3893C21.8317 23.1805 22.918 23.625 24.0507 23.625H27.3333C32.9943 23.625 37.5833 19.0919 37.5833 13.5C37.5833 7.9081 32.9943 3.375 27.3333 3.375H13.6667C8.00573 3.375 3.41667 7.9081 3.41667 13.5C3.41667 19.0919 8.00573 23.625 13.6667 23.625H15.9737C16.6534 23.625 17.3051 23.8917 17.7857 24.3664L19.201 25.7643C20.0019 26.5555 21.0882 27 22.2209 27H27.3333C34.8812 27 41 20.9558 41 13.5C41 6.04415 34.8812 -6.5181e-07 27.3333 0L13.6667 2.78953e-06C6.11877 3.44135e-06 -6.59857e-07 6.04416 0 13.5C6.59857e-07 20.9558 6.11878 27 13.6667 27Z" fill="#212326"/>
</g>
<defs>
<clipPath id="clip0_211_844">
<rect width="41" height="27" fill="white"/>
</clipPath>
</defs>
</svg>
