<svg width="55" height="30" viewBox="0 0 55 30" fill="none" xmlns="http://www.w3.org/2000/svg">
<g clip-path="url(#clip0_211_852)">
<path d="M54.9957 10.6697C55.0015 10.6279 55.0015 10.5858 54.9957 10.5441C55.0011 10.5101 55.0011 10.4755 54.9957 10.4414L54.5883 7.50877C54.5295 7.15792 54.3723 6.82999 54.1344 6.56166L54.0645 6.48178L53.9365 6.35625L46.8829 0.399675L47.0808 0.593678C46.9189 0.403795 46.7157 0.251914 46.4861 0.149222C46.2565 0.0465303 46.0062 -0.00436252 45.7539 0.000298064H43.6122C43.2639 -0.0064666 42.9236 0.102086 42.6461 0.308402C42.3547 0.103328 42.0038 -0.00466859 41.6451 0.000298064H39.5034C39.2225 -0.00416973 38.9454 0.0641735 38.7001 0.198428C38.4549 0.332683 38.2501 0.528082 38.1067 0.764835C37.8855 1.10299 37.8023 1.51041 37.8738 1.90595L38.1416 3.75453C37.9642 3.65597 37.7635 3.60482 37.5596 3.6062H27.1887C26.8166 3.60849 26.4531 3.71541 26.1411 3.91429C25.8395 4.0994 25.5973 4.36447 25.4428 4.67882L24.6396 4.00558C24.3235 3.71884 23.9063 3.56343 23.4757 3.57196H7.20353C6.83012 3.57863 6.46501 3.6809 6.14436 3.86865C5.70569 4.12036 5.38421 4.52965 5.24809 5.00975L0.0801167 21.9552C-0.0164452 22.2344 -0.0259442 22.5355 0.0528362 22.8201C0.131617 23.1046 0.295109 23.3597 0.522426 23.5528C0.581658 23.602 0.643851 23.6477 0.708664 23.6897C0.708664 23.6897 0.603891 23.6212 0.545692 23.5642L7.59931 29.5322C7.89769 29.8015 8.28781 29.952 8.69336 29.9543H25.0936C25.4681 29.9448 25.8335 29.8385 26.1528 29.6462C26.3334 29.5495 26.495 29.422 26.63 29.2696L26.6882 29.1898L26.7813 29.0757L26.8512 28.9501L27.6194 29.6006C27.9135 29.8592 28.2951 30.0015 28.6902 30H45.1253C45.4994 29.9878 45.8641 29.8817 46.1845 29.6919C46.361 29.5892 46.5217 29.4624 46.6618 29.3153L46.7199 29.2354L46.813 29.1214C46.8625 29.0491 46.9055 28.9728 46.941 28.8931C46.9791 28.8239 47.0103 28.7513 47.0342 28.6763L51.7482 13.2029V13.066C51.754 13.0129 51.754 12.9593 51.7482 12.9062V12.8035C51.7539 12.7695 51.7539 12.7349 51.7482 12.7008C51.7535 12.6287 51.7535 12.5562 51.7482 12.484H53.2614C53.393 12.4958 53.5255 12.4958 53.6571 12.484H53.7619C53.8471 12.4591 53.9291 12.4246 54.0063 12.3813H54.1227L54.3322 12.2215L54.4253 12.1531L54.5883 11.9476V11.8792L54.7047 11.6852C54.6982 11.6475 54.6982 11.6089 54.7047 11.5711C54.6985 11.5526 54.6985 11.5326 54.7047 11.5141C54.7294 11.4472 54.7489 11.3785 54.7629 11.3087C54.7575 11.2861 54.7575 11.2627 54.7629 11.2402C54.7572 11.2062 54.7572 11.1715 54.7629 11.1375C54.7629 11.1375 54.9957 10.6925 54.9957 10.6697Z" fill="black"/>
<path d="M23.9529 4.87291C24.0147 4.92769 24.0579 4.99972 24.0766 5.07929C24.0954 5.15887 24.0887 5.24216 24.0577 5.31793L18.9014 22.252C18.8365 22.4368 18.7036 22.5914 18.5289 22.6856C18.3868 22.7788 18.2222 22.8339 18.0517 22.8454H1.66316C1.5232 22.8388 1.39061 22.7819 1.29069 22.6856C1.23125 22.6317 1.18954 22.5616 1.17088 22.4845C1.15221 22.4072 1.15747 22.3263 1.18594 22.252L6.35391 5.31793C6.41346 5.13072 6.54212 4.97202 6.71474 4.87291C6.85924 4.78637 7.023 4.73547 7.19196 4.72456H23.5805C23.7193 4.72587 23.8525 4.77891 23.9529 4.87291ZM15.3978 18.8401L18.4823 8.72984H9.84581L6.77292 18.8401H15.3978ZM39.5965 5.04406C39.6525 5.10777 39.7223 5.15829 39.801 5.19187C39.8796 5.22546 39.9648 5.24125 40.0505 5.23805H42.1805C42.2617 5.23883 42.3416 5.21933 42.4129 5.1814C42.4842 5.14346 42.5444 5.08834 42.5879 5.02124C42.6257 4.96883 42.6525 4.9095 42.6665 4.84677C42.6804 4.78405 42.6814 4.71921 42.6694 4.6561L42.2504 1.64357C42.2105 1.50415 42.1388 1.3754 42.0409 1.267C41.9849 1.2033 41.9151 1.15278 41.8365 1.11919C41.7579 1.08561 41.6726 1.06983 41.5869 1.07302H39.4569C39.3758 1.07224 39.2958 1.09174 39.2245 1.12968C39.1532 1.16761 39.093 1.22273 39.0495 1.28983C38.968 1.44958 38.9331 1.55228 38.968 1.64357L39.3987 4.6561C39.4208 4.80278 39.4901 4.9387 39.5965 5.04406ZM46.3592 1.62075C46.3192 1.48132 46.2476 1.35257 46.1496 1.24418C46.0961 1.18071 46.0283 1.1302 45.9516 1.09656C45.8749 1.06292 45.7913 1.04705 45.7073 1.05019H43.5656C43.4859 1.04797 43.407 1.06694 43.3373 1.10511C43.2676 1.14328 43.2098 1.19923 43.1699 1.267C43.0925 1.36824 43.0589 1.4954 43.0768 1.62075L43.5074 4.63327C43.5345 4.77841 43.6031 4.91299 43.7053 5.02124C43.7622 5.0837 43.8323 5.13338 43.9107 5.16685C43.989 5.20034 44.0738 5.21684 44.1592 5.21522H46.301C46.3806 5.21626 46.4589 5.19678 46.5284 5.15872C46.5979 5.12067 46.6559 5.0654 46.6967 4.99843C46.7372 4.94738 46.7655 4.88807 46.7796 4.82489C46.7937 4.76171 46.7932 4.69624 46.7782 4.63327L46.3592 1.62075ZM37.7226 6.18518L37.513 4.70174H27.1888C27.0267 4.71049 26.8698 4.76173 26.7348 4.85008C26.6491 4.89591 26.5744 4.95943 26.5162 5.03626C26.458 5.1131 26.4174 5.20141 26.3973 5.29511L25.5359 8.12504C25.5016 8.19576 25.4898 8.27511 25.5023 8.35251C25.5148 8.42991 25.5508 8.50176 25.6058 8.55869C25.7039 8.64914 25.832 8.70186 25.9666 8.70704H38.5141L35.4296 18.8173H22.917C22.7557 18.8209 22.5986 18.8683 22.4631 18.9541C22.2985 19.0567 22.1783 19.2151 22.1256 19.3992L21.2526 22.2292C21.2241 22.3018 21.2166 22.3807 21.231 22.4572C21.2454 22.5337 21.281 22.6048 21.334 22.6627C21.4291 22.7593 21.5582 22.8164 21.6949 22.8225H38.1299C38.2999 22.8082 38.4638 22.7533 38.6071 22.6627C38.779 22.5681 38.908 22.4132 38.968 22.2292L43.6936 6.75573H38.3744C38.29 6.75736 38.2062 6.742 38.1281 6.7106C38.05 6.67919 37.9794 6.6324 37.9205 6.57314C37.8242 6.46966 37.7562 6.34409 37.7226 6.208V6.18518Z" fill="white"/>
</g>
<defs>
<clipPath id="clip0_211_852">
<rect width="55" height="30" fill="white"/>
</clipPath>
</defs>
</svg>
